<svg id="visual" viewBox="0 0 900 600" width="900" height="600" xmlns="http://www.w3.org/2000/svg" xmlns:xlink="http://www.w3.org/1999/xlink" version="1.1"><path d="M0 283L16.7 267.7C33.3 252.3 66.7 221.7 100 213.3C133.3 205 166.7 219 200 240.3C233.3 261.7 266.7 290.3 300 294.3C333.3 298.3 366.7 277.7 400 264.2C433.3 250.7 466.7 244.3 500 246.5C533.3 248.7 566.7 259.3 600 281.3C633.3 303.3 666.7 336.7 700 341C733.3 345.3 766.7 320.7 800 316.7C833.3 312.7 866.7 329.3 883.3 337.7L900 346L900 601L883.3 601C866.7 601 833.3 601 800 601C766.7 601 733.3 601 700 601C666.7 601 633.3 601 600 601C566.7 601 533.3 601 500 601C466.7 601 433.3 601 400 601C366.7 601 333.3 601 300 601C266.7 601 233.3 601 200 601C166.7 601 133.3 601 100 601C66.7 601 33.3 601 16.7 601L0 601Z" fill="#0066FF" stroke-linecap="round" stroke-linejoin="miter"></path></svg>